<svg xmlns="http://www.w3.org/2000/svg" width="14.83" height="14.83" viewBox="0 0 14.83 14.83"><defs><style>.cls-1{fill:#017189;stroke:#017189;stroke-linecap:round;stroke-linejoin:round;stroke-width:1.5px;}</style></defs><title>dashboard-icon</title><g id="Layer_2" data-name="Layer 2"><g id="Layer_1-2" data-name="Layer 1"><path class="cls-1" d="M2.75,6.08H4.08a1.76,1.76,0,0,0,2-2V2.75a1.77,1.77,0,0,0-2-2H2.75a1.77,1.77,0,0,0-2,2V4.08A1.77,1.77,0,0,0,2.75,6.08Z"/><path class="cls-1" d="M10.75,6.08h1.33a1.76,1.76,0,0,0,2-2V2.75a1.77,1.77,0,0,0-2-2H10.75a1.77,1.77,0,0,0-2,2V4.08A1.77,1.77,0,0,0,10.75,6.08Z"/><path class="cls-1" d="M10.75,14.08h1.33a1.76,1.76,0,0,0,2-2V10.75a1.77,1.77,0,0,0-2-2H10.75a1.77,1.77,0,0,0-2,2v1.33A1.77,1.77,0,0,0,10.75,14.08Z"/><path class="cls-1" d="M2.75,14.08H4.08a1.76,1.76,0,0,0,2-2V10.75a1.77,1.77,0,0,0-2-2H2.75a1.77,1.77,0,0,0-2,2v1.33A1.77,1.77,0,0,0,2.75,14.08Z"/></g></g></svg>