<svg width="16" height="17" viewBox="0 0 16 17" fill="none" xmlns="http://www.w3.org/2000/svg">
<path d="M3.33325 7.20833H4.66659C5.99992 7.20833 6.66658 6.54167 6.66658 5.20833V3.875C6.66658 2.54167 5.99992 1.875 4.66659 1.875H3.33325C1.99992 1.875 1.33325 2.54167 1.33325 3.875V5.20833C1.33325 6.54167 1.99992 7.20833 3.33325 7.20833Z" stroke="white" stroke-width="1.5" stroke-miterlimit="10" stroke-linecap="round" stroke-linejoin="round"/>
<path d="M11.3333 7.20833H12.6666C13.9999 7.20833 14.6666 6.54167 14.6666 5.20833V3.875C14.6666 2.54167 13.9999 1.875 12.6666 1.875H11.3333C9.99992 1.875 9.33325 2.54167 9.33325 3.875V5.20833C9.33325 6.54167 9.99992 7.20833 11.3333 7.20833Z" stroke="white" stroke-width="1.5" stroke-miterlimit="10" stroke-linecap="round" stroke-linejoin="round"/>
<path d="M11.3333 15.2083H12.6666C13.9999 15.2083 14.6666 14.5417 14.6666 13.2083V11.875C14.6666 10.5417 13.9999 9.875 12.6666 9.875H11.3333C9.99992 9.875 9.33325 10.5417 9.33325 11.875V13.2083C9.33325 14.5417 9.99992 15.2083 11.3333 15.2083Z" stroke="white" stroke-width="1.5" stroke-miterlimit="10" stroke-linecap="round" stroke-linejoin="round"/>
<path d="M3.33325 15.2083H4.66659C5.99992 15.2083 6.66658 14.5417 6.66658 13.2083V11.875C6.66658 10.5417 5.99992 9.875 4.66659 9.875H3.33325C1.99992 9.875 1.33325 10.5417 1.33325 11.875V13.2083C1.33325 14.5417 1.99992 15.2083 3.33325 15.2083Z" stroke="white" stroke-width="1.5" stroke-miterlimit="10" stroke-linecap="round" stroke-linejoin="round"/>
</svg>
