<svg width="48" height="48" viewBox="0 0 48 48" fill="none" xmlns="http://www.w3.org/2000/svg">
<mask id="mask0_1822_332" style="mask-type:alpha" maskUnits="userSpaceOnUse" x="0" y="0" width="48" height="48">
<circle cx="24" cy="24" r="24" fill="#C4C4C4"/>
</mask>
<g mask="url(#mask0_1822_332)">
<rect x="-1" y="1" width="52" height="47" rx="2" fill="white"/>
<mask id="mask1_1822_332" style="mask-type:alpha" maskUnits="userSpaceOnUse" x="-1" y="1" width="52" height="47">
<rect x="-1" y="1" width="52" height="47" rx="2" fill="white"/>
</mask>
<g mask="url(#mask1_1822_332)">
<path fill-rule="evenodd" clip-rule="evenodd" d="M51 1H-1V4.13333H51V1ZM51 7.26667H-1V10.4H51V7.26667ZM-1 13.5333H51V16.6667H-1V13.5333ZM51 19.8H-1V22.9333H51V19.8ZM-1 26.0667H51V29.2H-1V26.0667ZM51 32.3333H-1V35.4667H51V32.3333ZM-1 38.6H51V41.7333H-1V38.6ZM51 44.8667H-1V48H51V44.8667Z" fill="#D02F44"/>
<rect x="-1" y="1" width="22.2857" height="21.9333" fill="#46467F"/>
<g filter="url(#filter0_d_1822_332)">
<path fill-rule="evenodd" clip-rule="evenodd" d="M3.95239 5.69948C3.95239 6.56473 3.39807 7.26615 2.71429 7.26615C2.03051 7.26615 1.4762 6.56473 1.4762 5.69948C1.4762 4.83423 2.03051 4.13281 2.71429 4.13281C3.39807 4.13281 3.95239 4.83423 3.95239 5.69948ZM8.90477 5.69948C8.90477 6.56473 8.35045 7.26615 7.66667 7.26615C6.98289 7.26615 6.42858 6.56473 6.42858 5.69948C6.42858 4.83423 6.98289 4.13281 7.66667 4.13281C8.35045 4.13281 8.90477 4.83423 8.90477 5.69948ZM12.6191 7.26615C13.3028 7.26615 13.8571 6.56473 13.8571 5.69948C13.8571 4.83423 13.3028 4.13281 12.6191 4.13281C11.9353 4.13281 11.381 4.83423 11.381 5.69948C11.381 6.56473 11.9353 7.26615 12.6191 7.26615ZM18.8095 5.69948C18.8095 6.56473 18.2552 7.26615 17.5714 7.26615C16.8877 7.26615 16.3333 6.56473 16.3333 5.69948C16.3333 4.83423 16.8877 4.13281 17.5714 4.13281C18.2552 4.13281 18.8095 4.83423 18.8095 5.69948ZM5.19048 10.3995C5.87426 10.3995 6.42858 9.69806 6.42858 8.83281C6.42858 7.96757 5.87426 7.26615 5.19048 7.26615C4.5067 7.26615 3.95239 7.96757 3.95239 8.83281C3.95239 9.69806 4.5067 10.3995 5.19048 10.3995ZM11.381 8.83281C11.381 9.69806 10.8266 10.3995 10.1429 10.3995C9.45908 10.3995 8.90477 9.69806 8.90477 8.83281C8.90477 7.96757 9.45908 7.26615 10.1429 7.26615C10.8266 7.26615 11.381 7.96757 11.381 8.83281ZM15.0952 10.3995C15.779 10.3995 16.3333 9.69806 16.3333 8.83281C16.3333 7.96757 15.779 7.26615 15.0952 7.26615C14.4115 7.26615 13.8571 7.96757 13.8571 8.83281C13.8571 9.69806 14.4115 10.3995 15.0952 10.3995ZM18.8095 11.9661C18.8095 12.8314 18.2552 13.5328 17.5714 13.5328C16.8877 13.5328 16.3333 12.8314 16.3333 11.9661C16.3333 11.1009 16.8877 10.3995 17.5714 10.3995C18.2552 10.3995 18.8095 11.1009 18.8095 11.9661ZM12.6191 13.5328C13.3028 13.5328 13.8571 12.8314 13.8571 11.9661C13.8571 11.1009 13.3028 10.3995 12.6191 10.3995C11.9353 10.3995 11.381 11.1009 11.381 11.9661C11.381 12.8314 11.9353 13.5328 12.6191 13.5328ZM8.90477 11.9661C8.90477 12.8314 8.35045 13.5328 7.66667 13.5328C6.98289 13.5328 6.42858 12.8314 6.42858 11.9661C6.42858 11.1009 6.98289 10.3995 7.66667 10.3995C8.35045 10.3995 8.90477 11.1009 8.90477 11.9661ZM2.71429 13.5328C3.39807 13.5328 3.95239 12.8314 3.95239 11.9661C3.95239 11.1009 3.39807 10.3995 2.71429 10.3995C2.03051 10.3995 1.4762 11.1009 1.4762 11.9661C1.4762 12.8314 2.03051 13.5328 2.71429 13.5328ZM6.42858 15.0995C6.42858 15.9647 5.87426 16.6661 5.19048 16.6661C4.5067 16.6661 3.95239 15.9647 3.95239 15.0995C3.95239 14.2342 4.5067 13.5328 5.19048 13.5328C5.87426 13.5328 6.42858 14.2342 6.42858 15.0995ZM10.1429 16.6661C10.8266 16.6661 11.381 15.9647 11.381 15.0995C11.381 14.2342 10.8266 13.5328 10.1429 13.5328C9.45908 13.5328 8.90477 14.2342 8.90477 15.0995C8.90477 15.9647 9.45908 16.6661 10.1429 16.6661ZM16.3333 15.0995C16.3333 15.9647 15.779 16.6661 15.0952 16.6661C14.4115 16.6661 13.8571 15.9647 13.8571 15.0995C13.8571 14.2342 14.4115 13.5328 15.0952 13.5328C15.779 13.5328 16.3333 14.2342 16.3333 15.0995ZM17.5714 19.7995C18.2552 19.7995 18.8095 19.0981 18.8095 18.2328C18.8095 17.3676 18.2552 16.6661 17.5714 16.6661C16.8877 16.6661 16.3333 17.3676 16.3333 18.2328C16.3333 19.0981 16.8877 19.7995 17.5714 19.7995ZM13.8571 18.2328C13.8571 19.0981 13.3028 19.7995 12.6191 19.7995C11.9353 19.7995 11.381 19.0981 11.381 18.2328C11.381 17.3676 11.9353 16.6661 12.6191 16.6661C13.3028 16.6661 13.8571 17.3676 13.8571 18.2328ZM7.66667 19.7995C8.35045 19.7995 8.90477 19.0981 8.90477 18.2328C8.90477 17.3676 8.35045 16.6661 7.66667 16.6661C6.98289 16.6661 6.42858 17.3676 6.42858 18.2328C6.42858 19.0981 6.98289 19.7995 7.66667 19.7995ZM3.95239 18.2328C3.95239 19.0981 3.39807 19.7995 2.71429 19.7995C2.03051 19.7995 1.4762 19.0981 1.4762 18.2328C1.4762 17.3676 2.03051 16.6661 2.71429 16.6661C3.39807 16.6661 3.95239 17.3676 3.95239 18.2328Z" fill="url(#paint0_linear_1822_332)"/>
</g>
</g>
</g>
<defs>
<filter id="filter0_d_1822_332" x="1.4762" y="4.13281" width="17.3334" height="16.666" filterUnits="userSpaceOnUse" color-interpolation-filters="sRGB">
<feFlood flood-opacity="0" result="BackgroundImageFix"/>
<feColorMatrix in="SourceAlpha" type="matrix" values="0 0 0 0 0 0 0 0 0 0 0 0 0 0 0 0 0 0 127 0" result="hardAlpha"/>
<feOffset dy="1"/>
<feColorMatrix type="matrix" values="0 0 0 0 0 0 0 0 0 0 0 0 0 0 0 0 0 0 0.06 0"/>
<feBlend mode="normal" in2="BackgroundImageFix" result="effect1_dropShadow_1822_332"/>
<feBlend mode="normal" in="SourceGraphic" in2="effect1_dropShadow_1822_332" result="shape"/>
</filter>
<linearGradient id="paint0_linear_1822_332" x1="1.4762" y1="4.13281" x2="1.4762" y2="19.7995" gradientUnits="userSpaceOnUse">
<stop stop-color="white"/>
<stop offset="1" stop-color="#F0F0F0"/>
</linearGradient>
</defs>
</svg>
