<svg xmlns="http://www.w3.org/2000/svg" width="14.83" height="12.83" viewBox="0 0 14.83 12.83"><defs><style>.cls-1{fill:none;stroke:#017189;stroke-linecap:round;stroke-linejoin:round;stroke-width:1.5px;}</style></defs><title>wallet-active</title><g id="Layer_2" data-name="Layer 2"><g id="Layer_1-2" data-name="Layer 1"><path class="cls-1" d="M8.08,4.42h-4"/><path class="cls-1" d="M14.08,5.73V7.1a.68.68,0,0,1-.66.68H12.11a1.42,1.42,0,0,1-1.44-1.24A1.37,1.37,0,0,1,12,5.05h1.39A.68.68,0,0,1,14.08,5.73Z"/><path class="cls-1" d="M11.07,5.45a1.34,1.34,0,0,0-.4,1.09,1.42,1.42,0,0,0,1.44,1.24h1.31v1a3.15,3.15,0,0,1-3.34,3.33h-6A3.14,3.14,0,0,1,.75,8.75V4.08A3.1,3.1,0,0,1,3.54.79a3.27,3.27,0,0,1,.54,0h6a4,4,0,0,1,.5,0,3.12,3.12,0,0,1,2.84,3.3v1H12A1.35,1.35,0,0,0,11.07,5.45Z"/></g></g></svg>